<svg width="144" height="35" viewBox="0 0 144 35" fill="none" xmlns="http://www.w3.org/2000/svg">
<path d="M55.2923 28.5283C55.2923 28.825 55.3448 29.1061 55.4495 29.371C55.5648 29.6254 55.7169 29.8534 55.9055 30.0548C56.1046 30.2456 56.3301 30.3993 56.5816 30.5159C56.8435 30.6219 57.1215 30.6749 57.4149 30.6749C57.7083 30.6749 57.9862 30.6218 58.2482 30.5159C58.5101 30.3993 58.7409 30.2455 58.94 30.0548C59.139 29.8534 59.2911 29.6253 59.3959 29.371C59.5112 29.1061 59.5689 28.825 59.5689 28.5283V17.6837H63.8455V28.5283C63.8455 28.825 63.9032 29.1061 64.0184 29.371C64.1337 29.6254 64.2858 29.8534 64.4744 30.0548C64.6735 30.2456 64.8989 30.3993 65.1505 30.5159C65.4124 30.6219 65.6904 30.6749 65.9838 30.6749C66.2771 30.6749 66.5551 30.6218 66.8171 30.5159C67.079 30.3994 67.3045 30.2455 67.4932 30.0548C67.6922 29.8534 67.8496 29.6253 67.9648 29.371C68.0801 29.1061 68.1377 28.825 68.1378 28.5283V17.6837H72.4144V28.5283C72.4143 29.4186 72.2466 30.2616 71.9112 31.0565C71.5758 31.8408 71.1145 32.5248 70.5276 33.1078C69.9512 33.6907 69.2697 34.152 68.4837 34.4912C67.7081 34.8303 66.8746 35 65.9838 35C65.1872 35 64.4219 34.8622 63.6883 34.5866C62.9546 34.3004 62.2889 33.8869 61.6915 33.3463C61.1046 33.8868 60.444 34.3004 59.7104 34.5866C58.9872 34.8621 58.2219 35 57.4149 35C56.524 35 55.6905 34.8304 54.915 34.4912C54.1394 34.152 53.458 33.6908 52.871 33.1078C52.2945 32.5248 51.8385 31.8409 51.5031 31.0565C51.1677 30.2616 51 29.4186 51 28.5283V17.6837H55.2923V28.5283Z" fill="black"/>
<path fill-rule="evenodd" clip-rule="evenodd" d="M83.2316 17C83.7766 17 84.3165 17.0689 84.8511 17.2067C85.3856 17.3445 85.9045 17.5354 86.4076 17.7792C86.9107 18.023 87.3877 18.3092 87.8384 18.6378C88.2996 18.9664 88.7293 19.3216 89.1276 19.7032L90.7943 17.6837H91.832V34.682H90.7943L89.1276 32.3445C88.7189 32.7155 88.2837 33.0654 87.8227 33.394C87.372 33.7119 86.8949 33.993 86.3919 34.2367C85.8889 34.4699 85.3698 34.6555 84.8353 34.7933C84.3113 34.931 83.7766 35 83.2316 35C82.0473 35 80.9308 34.7986 79.8827 34.3958C78.845 33.9929 77.933 33.4099 77.1469 32.6466C76.3713 31.8728 75.7581 30.9292 75.3074 29.8163C74.8567 28.7033 74.6313 27.4363 74.6313 26.0159C74.6313 24.691 74.8567 23.4769 75.3074 22.3746C75.758 21.2616 76.3714 20.3074 77.1469 19.5124C77.933 18.7174 78.8451 18.1025 79.8827 17.6678C80.9308 17.2226 82.0473 17 83.2316 17ZM83.2316 21.3887C82.6447 21.3887 82.089 21.4894 81.565 21.6908C81.0515 21.8922 80.6006 22.1891 80.2128 22.5813C79.8356 22.9735 79.5367 23.4613 79.3167 24.0442C79.0966 24.6165 78.9865 25.274 78.9865 26.0159C78.9865 26.7578 79.0966 27.4206 79.3167 28.0035C79.5368 28.5759 79.8355 29.0583 80.2128 29.4505C80.6006 29.8427 81.0515 30.1396 81.565 30.341C82.089 30.5424 82.6447 30.6431 83.2316 30.6431C83.8185 30.6431 84.369 30.5158 84.8825 30.2615C85.4065 29.9965 85.8626 29.6518 86.2504 29.2279C86.6381 28.7934 86.9422 28.3002 87.1623 27.7491C87.3929 27.1874 87.5082 26.6094 87.5082 26.0159C87.5082 25.4223 87.3928 24.8498 87.1623 24.2986C86.9422 23.7368 86.6382 23.2438 86.2504 22.8198C85.8626 22.3852 85.4066 22.0406 84.8825 21.7862C84.3689 21.5212 83.8186 21.3887 83.2316 21.3887Z" fill="black"/>
<path fill-rule="evenodd" clip-rule="evenodd" d="M102.822 17C103.367 17 103.907 17.0689 104.442 17.2067C104.976 17.3445 105.495 17.5354 105.998 17.7792C106.501 18.023 106.978 18.3092 107.429 18.6378C107.89 18.9664 108.32 19.3216 108.718 19.7032L110.385 17.6837H111.422V34.682H110.385L108.718 32.3445C108.309 32.7155 107.874 33.0654 107.413 33.394C106.963 33.7119 106.485 33.993 105.982 34.2367C105.479 34.4699 104.96 34.6555 104.426 34.7933C103.902 34.931 103.367 35 102.822 35C101.638 35 100.521 34.7986 99.4732 34.3958C98.4356 33.9929 97.5236 33.4099 96.7374 32.6466C95.9618 31.8728 95.3486 30.9292 94.8979 29.8163C94.4472 28.7033 94.2218 27.4363 94.2218 26.0159C94.2218 24.691 94.4473 23.4769 94.8979 22.3746C95.3486 21.2616 95.9619 20.3074 96.7374 19.5124C97.5235 18.7174 98.4356 18.1025 99.4732 17.6678C100.521 17.2226 101.638 17 102.822 17ZM102.822 21.3887C102.235 21.3887 101.68 21.4894 101.156 21.6908C100.642 21.8922 100.191 22.1891 99.8034 22.5813C99.4262 22.9735 99.1273 23.4613 98.9072 24.0442C98.6872 24.6165 98.577 25.274 98.577 26.0159C98.577 26.7578 98.6871 27.4206 98.9072 28.0035C99.1273 28.5759 99.4261 29.0583 99.8034 29.4505C100.191 29.8427 100.642 30.1396 101.156 30.341C101.68 30.5424 102.235 30.6431 102.822 30.6431C103.409 30.6431 103.96 30.5158 104.473 30.2615C104.997 29.9965 105.453 29.6518 105.841 29.2279C106.229 28.7934 106.533 28.3002 106.753 27.7491C106.983 27.1874 107.099 26.6094 107.099 26.0159C107.099 25.4223 106.983 24.8498 106.753 24.2986C106.533 23.7368 106.229 23.2438 105.841 22.8198C105.453 22.3852 104.997 22.0406 104.473 21.7862C103.959 21.5212 103.409 21.3887 102.822 21.3887Z" fill="black"/>
<path fill-rule="evenodd" clip-rule="evenodd" d="M135.4 17C136.595 17 137.711 17.2173 138.749 17.6519C139.797 18.076 140.709 18.6855 141.484 19.4806C142.26 20.265 142.873 21.2138 143.324 22.3269C143.775 23.4293 144 24.6591 144 26.0159C144 27.2879 143.775 28.4754 143.324 29.5777C142.873 30.6695 142.26 31.6185 141.484 32.424C140.709 33.219 139.797 33.8499 138.749 34.3163C137.711 34.772 136.594 35 135.4 35C134.215 35 133.099 34.7721 132.051 34.3163C131.013 33.8498 130.101 33.219 129.315 32.424C128.539 31.6184 127.926 30.6695 127.475 29.5777C127.025 28.4754 126.799 27.2879 126.799 26.0159C126.799 24.7228 127.025 23.5246 127.475 22.4223C127.926 21.3199 128.539 20.371 129.315 19.576C130.101 18.7704 131.013 18.1396 132.051 17.6837C133.099 17.2279 134.215 17 135.4 17ZM135.4 21.3887C134.813 21.3887 134.257 21.5 133.733 21.7226C133.22 21.9346 132.769 22.2474 132.381 22.6608C132.004 23.0635 131.705 23.5514 131.485 24.1237C131.265 24.6854 131.155 25.3164 131.155 26.0159C131.155 26.673 131.265 27.2828 131.485 27.8445C131.705 28.4063 132.004 28.894 132.381 29.3074C132.769 29.7208 133.219 30.0495 133.733 30.2933C134.257 30.5265 134.813 30.6431 135.4 30.6431C135.987 30.6431 136.537 30.5317 137.051 30.3092C137.575 30.0866 138.031 29.7737 138.418 29.371C138.806 28.9683 139.11 28.4804 139.33 27.9081C139.561 27.3358 139.676 26.7048 139.676 26.0159C139.676 25.3163 139.561 24.6855 139.33 24.1237C139.11 23.5513 138.806 23.0636 138.418 22.6608C138.031 22.2474 137.575 21.9346 137.051 21.7226C136.537 21.5 135.987 21.3887 135.4 21.3887Z" fill="black"/>
<path d="M117.161 19.6714C117.853 19.0354 118.639 18.5477 119.52 18.2085C120.4 17.8587 121.312 17.6838 122.255 17.6837H126.045V22.0088H122.255C121.805 22.0089 121.38 22.0937 120.982 22.2633C120.584 22.4329 120.238 22.6662 119.944 22.9629C119.651 23.2597 119.42 23.6097 119.252 24.0124C119.085 24.4151 119.001 24.8447 119.001 25.3004V34.682H114.709V17.6519H115.746L117.161 19.6714Z" fill="black"/>
<ellipse cx="23.0791" cy="4.81249" rx="4.70311" ry="4.81249" fill="#FFC817"/>
<circle cx="40.4678" cy="7.36669" r="4.81249" fill="#FFC817"/>
<path d="M4.8125 0C7.39705 5.26248e-06 9.50576 2.03741 9.62012 4.59375H9.625V9.22266L9.62598 9.22168V21.3252C9.62598 23.6825 11.5372 25.5938 13.8945 25.5938C16.3695 25.5936 18.3758 23.5872 18.376 21.1123V16.8379C20.2113 17.8011 22.3 18.3467 24.5166 18.3467C25.6433 18.3467 26.7369 18.2054 27.7812 17.9404V21.6465C27.7815 23.8268 29.5491 25.5938 31.7295 25.5938C34.019 25.5937 35.875 23.7378 35.875 21.4482V17.5762C37.3094 18.0924 38.8555 18.375 40.4678 18.375C42.0974 18.375 43.6581 18.0827 45.1055 17.5557C45.1871 18.0267 45.2469 18.5053 45.2812 18.9912V21.0518C44.7547 28.3698 38.7177 34.1416 31.3467 34.1416C28.0173 34.1416 24.9618 32.9618 22.5615 30.9961C20.1751 33.4646 16.8296 35 13.125 35C5.98958 35 0.183651 29.306 0.00390625 22.2139L0 21.875V4.59375H0.00488281C0.119238 2.03741 2.22794 0 4.8125 0Z" fill="black"/>
</svg>
